<?xml version="1.0" encoding="utf-8"?>
<!-- Generator: Adobe Illustrator 16.0.0, SVG Export Plug-In . SVG Version: 6.00 Build 0)  -->
<!DOCTYPE svg PUBLIC "-//W3C//DTD SVG 1.1//EN" "http://www.w3.org/Graphics/SVG/1.1/DTD/svg11.dtd">
<svg version="1.1" id="Layer_1" xmlns="http://www.w3.org/2000/svg" xmlns:xlink="http://www.w3.org/1999/xlink" x="0px" y="0px"
	 width="100%" height="100%" viewBox="0 0 72 72" enable-background="new 0 0 72 72" xml:space="preserve">
<g id="brace">
	<path fill="black" d="M61.728,39.513c-2.409,0.134-4.326,0.424-5.755,0.869c-1.427,0.447-2.476,1.026-3.145,1.74
		c-0.669,0.715-1.004,1.539-1.004,2.476s0.201,1.975,0.603,3.112s0.982,2.375,1.739,3.713c0.759,1.338,1.563,2.767,2.409,4.282
		c-2.186-1.338-4.271-2.464-6.256-3.378c-1.985-0.916-3.759-1.306-5.32-1.172c-1.561,0.134-2.854,0.971-3.881,2.51
		c-1.025,1.539-1.694,4.07-2.007,7.594c-0.58-2.318-1.271-4.215-2.074-5.688c-1.651,1.16-3.424,2.053-5.319,2.677
		c-1.896,0.625-3.915,0.937-6.056,0.937c-2.721,0-5.297-0.523-7.728-1.571c-2.432-1.05-4.54-2.476-6.323-4.282
		c-1.785-1.808-3.212-3.916-4.283-6.324c-1.07-2.409-1.606-4.996-1.606-7.762c0-2.721,0.536-5.297,1.606-7.729
		c1.071-2.431,2.498-4.55,4.283-6.356c1.784-1.807,3.892-3.223,6.323-4.249c2.431-1.026,5.007-1.539,7.728-1.539
		c1.74,0,3.424,0.223,5.052,0.668c1.628,0.446,3.178,1.049,4.65,1.807c0.357-0.847,0.658-1.896,0.903-3.144
		c0.246-1.25,0.413-2.744,0.502-4.483c0.892,3.658,2.175,6.122,3.848,7.394c1.673,1.271,3.713,1.628,6.122,1.07
		c2.408-0.557,5.241-1.896,8.498-4.015c3.256-2.119,6.936-4.762,11.04-7.929c-3.212,4.059-5.921,7.662-8.129,10.806
		s-3.647,5.888-4.316,8.23c-0.669,2.342-0.423,4.305,0.735,5.889C55.729,37.249,58.114,38.531,61.728,39.513z M37.505,52.895
		c1.919-1.649,3.424-3.646,4.518-5.987c1.093-2.343,1.639-4.896,1.639-7.662c0-2.498-0.469-4.84-1.405-7.026
		s-2.219-4.092-3.847-5.721c-1.628-1.628-3.535-2.911-5.721-3.847c-2.186-0.937-4.528-1.405-7.026-1.405h-0.201v36.066h0.201
		c1.963,0,3.814-0.279,5.554-0.836c1.74-0.558,3.346-1.372,4.818-2.443v-0.134c0.268-0.134,0.524-0.289,0.769-0.468
		C37.049,53.252,37.283,53.074,37.505,52.895z"/>
</g>
</svg>
