<?xml version="1.0" encoding="utf-8"?>
<!-- Generator: Adobe Illustrator 16.0.0, SVG Export Plug-In . SVG Version: 6.00 Build 0)  -->
<!DOCTYPE svg PUBLIC "-//W3C//DTD SVG 1.1//EN" "http://www.w3.org/Graphics/SVG/1.1/DTD/svg11.dtd">
<svg version="1.1" id="Layer_1" xmlns="http://www.w3.org/2000/svg" xmlns:xlink="http://www.w3.org/1999/xlink" x="0px" y="0px"
	 width="100%" height="100%" viewBox="0 0 72 72" enable-background="new 0 0 72 72" xml:space="preserve">
<g id="contain">
	<path fill="black" d="M5.254,25.26l10.104,2.142l0.87-1.807l1.606-2.542l2.609-2.944l3.413-2.676l3.479-1.807l3.881-1.405
		L30.145,2.711l5.554,10.84l1.806,0.134l2.008,0.201l3.479,0.736l4.015,1.606l3.145,2.075l3.078,2.743l2.609,3.346l2.142,4.282
		l1.004,3.814l0.334,2.543l7.428,2.676l-7.494,1.539l-0.201,1.204l-0.468,2.142l-0.67,2.007l-1.204,2.811l-1.472,2.409l2.81,4.55
		l-5.018-1.874l-2.142,2.008l-2.342,1.605l-2.878,1.473l-3.278,1.204l-3.814,0.736l-3.88,9.77l-1.338-9.903l-3.011-0.603
		l-3.212-1.204l-3.413-1.874l-3.211-2.542l-2.676-3.012l-1.807-2.944l-1.271-3.145l-0.937-3.279l-0.401-3.612l0.268-3.68
		l0.535-3.011L5.254,25.26z M17.098,37.706l0.334,2.274l4.75-2.274l0.067-2.676l-4.617-2.61l-0.401,2.208L17.098,37.706z
		 M23.119,42.657l-5.353-1.07l0.469,1.539l0.669,1.807l1.337,2.274l1.338,1.74l28.237-26.163l-1.74-1.606L46.07,19.84l-2.275-1.137
		l-2.877-0.87l-3.346-0.401l1.739,3.278l1.606,0.401l2.208,0.602l1.472,0.736l0.201,0.468l-5.621,4.617l-4.817-8.364l0.468,8.966
		l-6.758-3.279l3.346,6.825l-8.364,0.268l6.691,3.479l-5.956,4.148l2.811,0.937l-3.145,3.012L23.119,42.657z M20.041,26.331
		l-1.003,1.94l4.884,1.138l0.937-1.271l0.87-1.271l-1.874-4.952l-1.003,0.87L21.58,24.19L20.041,26.331z M48.077,34.361l3.948-4.818
		l0.535,1.74l0.469,1.539l2.542,1.07l-0.468-2.476L54.3,29.142l-0.937-1.807l-1.204-2.007L24.123,51.423l1.539,1.271l2.409,1.405
		l2.342,0.937l2.476,0.603l-0.469-4.216l-0.937-0.335l-1.405-0.803l5.219-5.019l1.138,8.699l3.545-11.777l9.703,4.952l-4.617-8.23
		l9.568-2.408L48.077,34.361z M27.067,19.64l-1.472,1.071l4.483,2.208l1.874-0.937L31.617,17.9l-2.074,0.603L27.067,19.64z
		 M41.118,52.159l-1.07,3.479l2.408-0.535l2.209-0.804l2.476-1.539l2.141-1.673l-2.877-1.204l-1.338,0.937l-1.874,0.804
		L41.118,52.159z M51.624,44.129l1.472,2.477l1.07-2.208l0.938-2.343l0.468-2.208l-3.412,0.603l-0.268,2.543L51.624,44.129z"/>
</g>
</svg>
