<?xml version="1.0" encoding="utf-8"?>
<!-- Generator: Adobe Illustrator 16.0.0, SVG Export Plug-In . SVG Version: 6.00 Build 0)  -->
<!DOCTYPE svg PUBLIC "-//W3C//DTD SVG 1.1//EN" "http://www.w3.org/Graphics/SVG/1.1/DTD/svg11.dtd">
<svg version="1.1" id="Layer_1" xmlns="http://www.w3.org/2000/svg" xmlns:xlink="http://www.w3.org/1999/xlink" x="0px" y="0px"
	 width="100%" height="100%" viewBox="0 0 72 72" enable-background="new 0 0 72 72" xml:space="preserve">
<g id="evade">
	<path fill="black" d="M51.256,24.859l13.718-12.245l-1.07,16.527l-0.938,16.326l-9.033-3.881
		c-0.313,0.893-0.791,2.097-1.439,3.613c-0.646,1.518-1.449,3.066-2.408,4.651c-0.959,1.583-2.041,3.089-3.245,4.516
		c-1.204,1.428-2.565,2.498-4.082,3.212c-0.759,0.491-1.649,0.825-2.676,1.004c-0.58,0.089-1.239,0.11-1.975,0.066
		c-0.736-0.044-1.517-0.256-2.342-0.635c-0.825-0.38-1.661-0.915-2.509-1.606c-0.848-0.691-1.695-1.661-2.542-2.911
		c-0.713-1.07-1.461-1.851-2.242-2.342c-0.78-0.49-1.684-0.736-2.71-0.736c-1.338-0.044-2.71,0.279-4.115,0.971
		s-2.777,1.517-4.114,2.477c-1.338,0.958-2.532,1.962-3.58,3.011c-1.048,1.048-1.84,1.884-2.375,2.509l-4.55-3.814
		c0.268-0.268,0.981-1.015,2.141-2.24c1.16-1.228,2.62-2.511,4.383-3.849c1.762-1.338,3.724-2.52,5.888-3.547
		c2.164-1.024,4.382-1.516,6.657-1.472c0.625,0.046,1.316,0.156,2.074,0.335c0.759,0.179,1.551,0.468,2.375,0.869
		c0.825,0.402,1.662,0.972,2.509,1.707c0.848,0.736,1.673,1.662,2.476,2.776c0.446,0.625,0.992,1.25,1.639,1.874
		c0.647,0.625,1.305,0.893,1.974,0.803c0.804-0.134,1.662-0.658,2.576-1.572c0.915-0.915,1.796-2.041,2.644-3.379
		c0.847-1.339,1.639-2.766,2.375-4.283c0.735-1.516,1.326-2.966,1.773-4.349l-8.966-3.881L51.256,24.859z"/>
</g>
</svg>
