<?xml version="1.0" encoding="utf-8"?>
<!-- Generator: Adobe Illustrator 16.0.0, SVG Export Plug-In . SVG Version: 6.00 Build 0)  -->
<!DOCTYPE svg PUBLIC "-//W3C//DTD SVG 1.1//EN" "http://www.w3.org/Graphics/SVG/1.1/DTD/svg11.dtd">
<svg version="1.1" id="Layer_1" xmlns="http://www.w3.org/2000/svg" xmlns:xlink="http://www.w3.org/1999/xlink" x="0px" y="0px"
	 width="100%" height="100%" viewBox="0 0 72 72" enable-background="new 0 0 72 72" xml:space="preserve">
<g id="redirect">
	<path fill="black" d="M61.543,18.199c1.696,2.587,2.555,5.52,2.577,8.799c0.021,3.279-0.658,6.591-2.042,9.937
		c-1.382,3.346-3.434,6.604-6.155,9.772c-2.721,3.166-6,5.977-9.835,8.432c-4.238,2.676-8.565,4.582-12.981,5.72
		c-4.417,1.138-8.565,1.507-12.446,1.105c3.078-0.09,6.245-0.648,9.501-1.673c3.256-1.027,6.468-2.589,9.636-4.685
		c3.434-2.187,6.366-4.684,8.798-7.494s4.271-5.699,5.521-8.668c1.25-2.967,1.863-5.911,1.841-8.833
		c-0.023-2.922-0.771-5.542-2.242-7.862c-1.517-2.364-3.591-4.182-6.222-5.453c-2.633-1.271-5.565-1.963-8.8-2.075
		c-3.234-0.111-6.647,0.357-10.237,1.405c-3.591,1.048-7.104,2.688-10.539,4.918c-2.052,1.338-3.915,2.766-5.587,4.283
		c-1.673,1.516-3.156,3.1-4.45,4.751c1.606-2.499,3.546-4.918,5.821-7.26c2.275-2.342,4.907-4.472,7.896-6.39
		c3.836-2.453,7.762-4.271,11.777-5.454c4.015-1.182,7.829-1.706,11.442-1.572s6.892,0.893,9.835,2.275
		C57.596,13.56,59.894,15.567,61.543,18.199z M26.415,50.922l-3.346-5.554l-2.007-3.146l-1.673-2.88l-3.078-5.085l28.372-5.956
		L26.415,50.922z"/>
</g>
</svg>
