<?xml version="1.0" encoding="utf-8"?>
<!-- Generator: Adobe Illustrator 21.0.0, SVG Export Plug-In . SVG Version: 6.00 Build 0)  -->
<svg version="1.1" id="Layer_1" xmlns="http://www.w3.org/2000/svg" xmlns:xlink="http://www.w3.org/1999/xlink" x="0px" y="0px"
	 viewBox="0 0 30 30" style="enable-background:new 0 0 30 30;" xml:space="preserve" width="100%" height="100%">
<style type="text/css">
	.st0{fill:black;}
</style>
<g>
	<g>
		<path class="st0" d="M11.3,6.3l10.1,3L15.6,18l-5.8,8.8l2.5-14.2l-11-9.3L11.3,6.3z"/>
	</g>
	<path class="st0" d="M28.1,25.6c0.9-0.9,0.9-2.5,0-3.4s-13.1-9.6-13.1-9.6s8.8,12.1,9.7,13C25.6,26.6,27.1,26.5,28.1,25.6z"/>
	<path class="st0" d="M24.3,14.7c0.1-0.7-0.3-1.4-1-1.5s-8.7-0.5-8.7-0.5s7.5,2.9,8.2,3.1S24.1,15.4,24.3,14.7z"/>
	<path class="st0" d="M19.2,24.7c0.7-0.3,1.1-1,0.9-1.8c-0.3-0.7-4.4-8.3-4.4-8.3s1.5,8.5,1.7,9.2C17.7,24.5,18.4,24.9,19.2,24.7z"
		/>
</g>
</svg>
