<?xml version="1.0" encoding="utf-8"?>
<!-- Generator: Adobe Illustrator 16.0.0, SVG Export Plug-In . SVG Version: 6.00 Build 0)  -->
<!DOCTYPE svg PUBLIC "-//W3C//DTD SVG 1.1//EN" "http://www.w3.org/Graphics/SVG/1.1/DTD/svg11.dtd">
<svg version="1.1" id="Layer_1" xmlns="http://www.w3.org/2000/svg" xmlns:xlink="http://www.w3.org/1999/xlink" x="0px" y="0px"
	 width="100%" height="100%" viewBox="0 0 72 72" enable-background="new 0 0 72 72" xml:space="preserve">
<path
     d="m 45.309292,56.30795 c -1.071241,-4.369628 -2.142481,-8.739255 -3.213722,-13.108883 8.923433,0.563859 17.849339,1.085361 26.777747,1.56404 -5.740529,2.135458 -11.481058,4.270917 -17.221587,6.406375 -1.022442,6.048321 -2.044883,12.096641 -3.067325,18.144962 C 47.492701,64.978946 46.400996,60.643448 45.309292,56.30795 Z M 30.883281,12.999129 C 39.277539,16.541766 47.671798,20.084403 56.066056,23.62704 44.272784,37.57743 32.488596,51.535491 20.713333,65.501086 24.276428,53.517528 27.839524,41.533971 31.402619,29.550413 22.819945,20.453734 14.23727,11.357056 5.6545962,2.260377 14.064158,5.839961 22.473719,9.419545 30.883281,12.999129 Z"
     fill="black" /></svg>