<?xml version="1.0" encoding="utf-8"?>
<!-- Generator: Adobe Illustrator 16.0.0, SVG Export Plug-In . SVG Version: 6.00 Build 0)  -->
<!DOCTYPE svg PUBLIC "-//W3C//DTD SVG 1.1//EN" "http://www.w3.org/Graphics/SVG/1.1/DTD/svg11.dtd">
<svg version="1.1" xmlns="http://www.w3.org/2000/svg" xmlns:xlink="http://www.w3.org/1999/xlink" x="0px" y="0px"
	 width="100%" height="100%" viewBox="0 0 72 72" enable-background="new 0 0 72 72" xml:space="preserve">
<g>
	<path fill="black" d="M71.318,48.193l-8.797-1.48c-1.567-0.29-2.889-0.464-3.962-0.523c-1.076-0.057-2.047-0.086-2.918-0.086
		c-1.046,0-1.96,0.086-2.744,0.261c-0.784,0.174-1.496,0.596-2.134,1.264c-0.64,0.667-1.291,1.654-1.96,2.961
		c-0.668,1.306-1.407,3.093-2.221,5.356l-2.003,5.749l-2.353-5.661c-0.755-1.685-1.539-3.005-2.352-3.964
		c-0.813-0.958-1.655-1.698-2.526-2.221L27.856,66.92H14.704l17.42-18.378c-1.51,0-3.18,0.16-5.009,0.479
		c-1.829,0.318-3.817,0.711-5.966,1.176l-1.742,0.437L6.168,60.475l-5.487-3.658V49.5l22.209-8.013
		c1.51-2.148,2.526-4.181,3.049-6.098L0.682,41.836v-8.013l25.694-1.83c0-3.193-1.423-6.097-4.268-8.709l-6.62-5.749l8.623,1.568
		c1.858,0.349,3.368,0.61,4.529,0.785c1.162,0.174,2.235,0.261,3.223,0.261c1.045,0,2.018-0.117,2.918-0.349
		c0.9-0.232,1.756-0.683,2.569-1.35c0.813-0.668,1.598-1.611,2.353-2.831c0.755-1.219,1.596-2.845,2.525-4.878L44.58,5.08
		l2.003,5.719c0.754,2.25,1.465,4.043,2.133,5.372c0.668,1.328,1.337,2.351,2.004,3.07c0.668,0.726,1.394,1.183,2.178,1.386
		s1.698,0.305,2.744,0.305c0.871,0,1.842-0.058,2.918-0.174c1.073-0.116,2.395-0.261,3.962-0.436l8.797-1.654l-6.88,5.763
		c-4.065,3.375-6.097,6.409-6.097,9.087c0.116,1.394,0.652,2.823,1.609,4.282c0.96,1.451,2.455,2.998,4.487,4.631L71.318,48.193z
		 M56.339,41.226c-0.93-1.336-1.599-2.613-2.005-3.831c-0.406-1.22-0.667-2.498-0.783-3.833c0-2.497,0.958-5.081,2.874-7.752
		c-1.8,0.058-3.323-0.072-4.573-0.392c-1.248-0.319-2.352-0.842-3.31-1.568c-0.958-0.726-1.8-1.597-2.526-2.613
		c-0.725-1.016-1.379-2.192-1.959-3.528c-1.394,2.316-3.02,4.102-4.878,5.342c-1.857,1.248-4.297,1.865-7.316,1.865
		c-0.406,0-0.813,0-1.219,0s-0.842-0.05-1.306-0.174c0.58,1.052,1.045,2.156,1.394,3.324c0.347,1.162,0.521,2.388,0.521,3.666
		l12.02-0.958l-12.02,3.223c-0.29,1.742-0.754,3.398-1.393,4.964l9.668-3.484l-11.41,8.537c0.755-0.059,1.48-0.131,2.177-0.219
		c0.697-0.087,1.364-0.13,2.004-0.13c0.696,0,1.378,0.057,2.046,0.174c0.667,0.116,1.321,0.231,1.959,0.349l10.278-10.975
		L39.79,45.494c0.813,0.464,1.566,1.03,2.264,1.698s1.365,1.437,2.003,2.308c1.104-2.67,2.512-4.719,4.225-6.141
		c1.712-1.422,4.166-2.134,7.36-2.134H56.339z"/>
</g>
</svg>
