<svg version="1.1" id="Layer_1" xmlns="http://www.w3.org/2000/svg" xmlns:xlink="http://www.w3.org/1999/xlink" x="0px" y="0px" width="100%" height="100%" viewBox="0 0 72 72" enable-background="new 0 0 72 72" xml:space="preserve">
<path fill="black" d="
	m 23.138592,9.0630079 c -0.231617,0.09012 -0.469524,0.1750396 -0.697504,0.2694072 L 62.667585,49.558912 c 0.517291,-1.24971 0.968446,-2.554727 1.363642,-3.900862 l 0,-4.769977 -31.82322,-31.8250651 z m 15.882086,0 25.010549,25.0105491 0,-25.0105491 z M 16.940389,12.349403 c -0.893386,0.643025 -1.735748,1.333484 -2.496625,2.094361 -1.315047,1.315047 -2.444733,2.845222 -3.417408,4.533784 l 41.996096,41.996096 c 1.688562,-0.972675 3.218737,-2.102361 4.533784,-3.417408 0.760877,-0.760877 1.451336,-1.603239 2.094361,-2.496625 z m -8.9716162,14.217668 0,5.722127 30.6459502,30.647794 5.722127,0 z m 0,19.031931 0,2.727283 14.6088632,14.610707 2.727282,0 z
"></path>
</svg>