<?xml version="1.0" encoding="utf-8"?>
<!-- Generator: Adobe Illustrator 21.0.0, SVG Export Plug-In . SVG Version: 6.00 Build 0)  -->
<svg version="1.1" id="Layer_1" xmlns="http://www.w3.org/2000/svg" xmlns:xlink="http://www.w3.org/1999/xlink" x="0px" y="0px"
	 viewBox="0 0 30 30" style="enable-background:new 0 0 30 30;" xml:space="preserve" width="100%" height="100%">
<style type="text/css">
	.st0{fill:black;}
</style>
<path id="path5777" class="st0" d="M19.6,7.1C19.6,7.1,19.6,7.1,19.6,7.1l4.6,7.8v0.1l-4.5,7.8
	c-0.1,0.1-0.1,0.1-0.1,0.1h-9c-0.1,0-0.1,0-0.1-0.1l-4.5-7.8c-0.1,0-0.1-0.1,0-0.1l4.5-7.8c0,0,0-0.1,0.1-0.1H19.6z M26.9,13
	l-0.1,0.1c-0.4,0.3-0.9,0.3-1.4,0.2c-0.5-0.1-0.8-0.4-1.1-0.8l-2.4-4.1c-0.3-0.5-0.3-0.9-0.2-1.4c0.1-0.5,0.4-0.9,0.9-1.1l0.1-0.1
	L26.9,13z M23.8,5.1L25,4.4l4.2,7.2L28,12.4L23.8,5.1z M22.7,24.2l-0.1-0.1c-0.5-0.2-0.8-0.6-0.9-1c-0.1-0.5-0.1-1,0.2-1.5l2.4-4.1
	c0.3-0.5,0.6-0.7,1.1-0.8c0.5-0.1,1-0.1,1.4,0.1l0.1,0.1L22.7,24.2z M28,17.6l1.2,0.7L25,25.6l-1.2-0.7L28,17.6z M10.8,26.2v-0.1
	c0-0.5,0.2-0.9,0.6-1.3c0.4-0.4,0.8-0.6,1.2-0.6h4.7c0.6,0,1,0.2,1.3,0.6c0.4,0.4,0.6,0.8,0.6,1.3v0.1H10.8z M19.2,27.5V29h-8.4
	v-1.5H19.2z M3.2,16.9l0.1-0.1c0.4-0.2,0.8-0.3,1.3-0.1c0.5,0.1,0.9,0.4,1.2,0.8l2.4,4.1c0.2,0.5,0.3,1,0.1,1.5
	c-0.1,0.5-0.4,0.8-0.8,1l-0.1,0.1L3.2,16.9z M6.3,24.9L5,25.6l-4.2-7.3L2,17.6L6.3,24.9z M7.4,5.8l0.1,0.1C8,6.1,8.2,6.5,8.3,7
	c0.1,0.5,0.1,0.9-0.1,1.4l-2.4,4.1c-0.3,0.4-0.7,0.7-1.2,0.8c-0.5,0.1-0.9,0.1-1.3-0.2L3.2,13L7.4,5.8z M2,12.4l-1.2-0.8L5,4.4
	l1.2,0.7L2,12.4z M19.2,3.8v0.1c0,0.5-0.2,1-0.6,1.3c-0.3,0.4-0.8,0.6-1.3,0.6h-4.7c-0.5,0-0.9-0.2-1.2-0.6
	c-0.4-0.4-0.6-0.8-0.6-1.3V3.8H19.2z M10.8,2.5V1h8.4v1.5H10.8z"/>
</svg>
