<?xml version="1.0" encoding="utf-8"?>
<!-- Generator: Adobe Illustrator 16.0.0, SVG Export Plug-In . SVG Version: 6.00 Build 0)  -->
<!DOCTYPE svg PUBLIC "-//W3C//DTD SVG 1.1//EN" "http://www.w3.org/Graphics/SVG/1.1/DTD/svg11.dtd">
<svg version="1.1" xmlns="http://www.w3.org/2000/svg" xmlns:xlink="http://www.w3.org/1999/xlink" x="0px" y="0px"
	 width="100%" height="100%" viewBox="0 0 72 72" enable-background="new 0 0 72 72" xml:space="preserve">
<g id="grit">
	<path fill="black" d="M11.825,65.763c0.115-0.174,0.406-0.841,0.869-2.001c2.435-5.912,3.971-9.913,4.609-12l0.087-0.348
		l-0.174-0.435c-0.174-0.291-0.406-0.725-0.696-1.304c-1.043-1.74-1.884-3.538-2.522-5.394c-0.348-0.985-0.667-1.622-0.956-1.912
		c-0.58-0.58-1.942-1.464-4.087-2.653c-2.145-1.188-4.493-2.333-7.043-3.434c-0.638-0.232-0.986-0.376-1.044-0.435
		c0-0.116,0.957-0.493,2.869-1.13c2.436-0.812,4.349-1.536,5.74-2.174c1.914-0.869,3.218-1.739,3.914-2.609
		c0.29-0.347,0.521-0.84,0.695-1.478c0.754-2.087,1.769-4.088,3.044-6.001c0.464-0.696,0.696-1.073,0.696-1.13
		c0-0.29-1.189-3.479-3.565-9.565c-1.507-3.884-2.247-5.841-2.218-5.87s1.986,1.521,5.87,4.653c3.13,2.492,5.102,4.087,5.913,4.783
		l0.348,0.174l1.13-0.435c1.507-0.754,2.812-1.304,3.913-1.652c3.942-1.276,7.942-1.334,12-0.174
		c1.276,0.347,2.813,0.927,4.611,1.739c0.868,0.406,1.332,0.609,1.39,0.609c0.059,0,1.594-1.188,4.608-3.565
		c5.103-4.117,7.683-6.16,7.739-6.131c0.06,0.029-0.549,1.608-1.825,4.74c-1.507,3.652-2.695,6.695-3.565,9.13l-0.607,1.74
		l0.781,1.304c0.522,0.87,0.899,1.507,1.131,1.913c0.928,1.797,1.507,3.188,1.739,4.174c0.116,0.232,0.261,0.435,0.435,0.608
		c0.927,0.985,3.275,2.261,7.043,3.827c1.16,0.522,2.407,1.015,3.74,1.478l2.695,1.13l-0.782,0.348
		c-0.985,0.406-2.203,0.957-3.652,1.653c-4.231,2.087-7.102,3.825-8.609,5.217c-0.405,0.349-0.753,0.957-1.043,1.826
		c-0.695,1.912-1.595,3.683-2.696,5.305c-0.289,0.464-0.434,0.725-0.434,0.783c-0.117,0.174,1.159,3.594,3.825,10.261
		c1.218,2.957,1.825,4.464,1.825,4.523c-0.346-0.233-0.796-0.552-1.347-0.958c-0.552-0.405-1.246-0.957-2.087-1.653
		c-0.84-0.693-2.072-1.651-3.695-2.867l-4.349-3.566l-0.696,0.436c-0.87,0.579-1.768,1.071-2.695,1.478
		c-4.059,1.912-8.378,2.464-12.957,1.653c-2.667-0.522-5.131-1.45-7.393-2.783c-0.695-0.407-1.188-0.492-1.478-0.262
		c-1.102,0.755-4.464,3.42-10.088,8.001l-0.956,0.783V65.763z M21.478,46.022c1.043-0.174,1.768-0.639,2.173-1.392
		c0.174-0.349,0.29-1.13,0.348-2.349c0.058-0.753,0.072-3.087,0.043-7c-0.029-3.913-0.072-5.985-0.131-6.218
		c-0.058-0.521-0.319-1.014-0.782-1.478c-0.754-0.695-1.595-1.015-2.522-0.957c-0.927,0.058-1.739,0.464-2.435,1.217
		c-0.174,0.231-0.318,0.754-0.435,1.565c-0.174,1.682-0.29,4.189-0.348,7.522c-0.058,3.334-0.029,5.436,0.087,6.305
		c0.116,0.754,0.435,1.362,0.957,1.826C19.361,45.993,20.376,46.312,21.478,46.022z M29.217,54.022
		c0.464-0.116,0.87-0.348,1.217-0.696c0.29-0.289,0.493-1.216,0.609-2.782c0.058-0.638,0.087-4.146,0.087-10.521
		c0-6.378-0.029-11.045-0.087-14.001c-0.058-3.13-0.145-4.898-0.261-5.305c-0.115-0.406-0.406-0.753-0.869-1.043
		c-0.87-0.522-1.769-0.522-2.697,0c-0.347,0.231-0.637,0.522-0.869,0.87c-0.29,0.638-0.435,6.029-0.435,16.175
		c0,8.348,0.087,13.45,0.261,15.305c0.058,0.58,0.261,1.015,0.609,1.304C27.42,54.022,28.231,54.255,29.217,54.022z M36.609,58.371
		c0.638-0.115,1.188-0.319,1.651-0.608c0.348-0.291,0.58-0.957,0.696-2.001c0.174-1.217,0.262-7.565,0.262-19.044
		c0-12.291-0.175-18.755-0.522-19.393c-0.291-0.521-0.667-0.927-1.13-1.218c-0.465-0.231-0.972-0.347-1.523-0.347
		s-1.058,0.116-1.522,0.347c-0.463,0.291-0.84,0.696-1.13,1.218c-0.059,0.174-0.116,0.406-0.174,0.696
		c-0.232,2.145-0.348,8.494-0.348,19.045c0,10.552,0.116,16.928,0.348,19.131c0.058,0.522,0.29,0.985,0.695,1.393
		C34.609,58.342,35.507,58.602,36.609,58.371z M44.436,54.022c0.348-0.057,0.696-0.23,1.044-0.521
		c0.405-0.289,0.667-1.014,0.782-2.174c0.059-0.521,0.086-5.016,0.086-13.479c0-8.463-0.027-13.363-0.086-14.696
		c-0.059-1.682-0.262-2.696-0.608-3.043c-0.87-0.928-1.885-1.102-3.044-0.522c-0.464,0.231-0.782,0.551-0.957,0.957
		c-0.174,0.348-0.318,2.145-0.436,5.392c-0.057,1.45-0.086,5.029-0.086,10.739c0,5.71,0.029,9.32,0.086,10.828
		c0.117,3.246,0.262,5.015,0.436,5.305C42.231,53.966,43.16,54.371,44.436,54.022z M52.349,45.979
		c0.522-0.145,0.985-0.421,1.393-0.826c0.463-0.406,0.724-1.565,0.781-3.479c0.06-0.985,0.073-3.231,0.043-6.739
		c-0.028-3.507-0.071-5.435-0.13-5.783c-0.058-0.521-0.319-1.014-0.782-1.478c-1.16-1.159-2.436-1.392-3.827-0.695
		c-0.638,0.29-1.071,0.667-1.305,1.13c-0.289,0.521-0.492,2.957-0.607,7.305c-0.116,4.348-0.059,7.043,0.174,8.087
		c0.289,1.449,1.189,2.318,2.696,2.608C51.305,46.167,51.826,46.124,52.349,45.979z"/>
</g>
</svg>
