<?xml version="1.0" encoding="utf-8"?>
<!-- Generator: Adobe Illustrator 16.0.0, SVG Export Plug-In . SVG Version: 6.00 Build 0)  -->
<!DOCTYPE svg PUBLIC "-//W3C//DTD SVG 1.1//EN" "http://www.w3.org/Graphics/SVG/1.1/DTD/svg11.dtd">
<svg version="1.1" xmlns="http://www.w3.org/2000/svg" xmlns:xlink="http://www.w3.org/1999/xlink" x="0px" y="0px"
	 width="100%" height="100%" viewBox="0 0 72 72" enable-background="new 0 0 72 72" xml:space="preserve">
<g id="heavy">
	<path fill="black" d="M71.163,24.598V63.84l-4.739,4.809c-4.462-0.512-9.341-0.906-14.638-1.186s-10.918-0.418-16.867-0.418
		c-5.483,0-10.722,0.117-15.717,0.348c-4.995,0.232-9.606,0.561-13.835,0.977l-4.53-4.529V24.598l4.669-4.74
		c4.229-0.418,8.828-0.743,13.8-0.976c4.972-0.232,10.176-0.348,15.612-0.348c5.995,0,11.686,0.14,17.077,0.418
		c5.39,0.279,10.315,0.674,14.774,1.185L71.163,24.598z M65.169,29.338l-8.226-8.294c-3.438-0.232-7.004-0.417-10.697-0.557
		c-3.694-0.14-7.471-0.209-11.327-0.209c-3.438,0-6.795,0.047-10.071,0.14c-3.276,0.093-6.47,0.256-9.583,0.488l-8.503,8.433v4.182
		v15.543v4.111l8.433,8.434c3.16-0.186,6.39-0.324,9.688-0.416c3.299-0.096,6.645-0.141,10.036-0.141
		c3.81,0,7.539,0.059,11.187,0.174c3.646,0.115,7.19,0.289,10.629,0.521l8.435-8.572v-4.111V33.521V29.338z M34.919,21.74
		c7.203,0,14.058,0.209,20.562,0.627l7.389,7.319v17.981l-0.07,0.07v0.35l-7.527,7.527c-6.504-0.418-13.289-0.629-20.352-0.629
		c-3.159,0-6.249,0.035-9.27,0.104c-3.02,0.07-6.041,0.197-9.061,0.385l-7.318-7.389v-0.35l-0.069-0.068V29.687l7.458-7.458
		c3.02-0.186,6.029-0.314,9.026-0.384C28.683,21.774,31.76,21.74,34.919,21.74z"/>
</g>
</svg>
