<?xml version="1.0" encoding="utf-8"?>
<!-- Generator: Adobe Illustrator 16.0.0, SVG Export Plug-In . SVG Version: 6.00 Build 0)  -->
<!DOCTYPE svg PUBLIC "-//W3C//DTD SVG 1.1//EN" "http://www.w3.org/Graphics/SVG/1.1/DTD/svg11.dtd">
<svg version="1.1" xmlns="http://www.w3.org/2000/svg" xmlns:xlink="http://www.w3.org/1999/xlink" x="0px" y="0px"
	 width="100%" height="100%" viewBox="0 0 72 72" enable-background="new 0 0 72 72" xml:space="preserve">
<g>
	<path fill="black" d="M18.616,66.84c-2.167-3.673-6.141-10.536-11.921-20.591c-3.371-5.78-5.267-9.09-5.688-9.933l-0.09-0.361
		c0.662-1.385,5.208-9.332,13.636-23.841l4.334-7.495h17.068h17.067l4.334,7.495c8.429,14.509,12.945,22.366,13.547,23.57
		l0.181,0.271l-0.181,0.361c-0.602,1.205-5.118,9.06-13.547,23.57l-4.334,7.496H35.955H18.887L18.616,66.84z M53.926,56.093
		c5.96-10.296,9.571-16.587,10.837-18.874l0.723-1.264l-0.452-0.813c-1.205-2.107-4.485-7.796-9.843-17.067l-4.967-8.669H35.955
		H21.687l-3.341,5.87c-4.335,7.465-7.225,12.461-8.669,14.99c-1.265,2.168-2.107,3.642-2.529,4.425l-0.722,1.265l0.722,1.264
		c1.264,2.287,4.877,8.578,10.837,18.874l3.702,6.412h14.269h14.269L53.926,56.093z M24.215,53.475
		c-5.719-9.874-8.97-15.533-9.753-16.978c-0.06-0.181-0.06-0.361,0-0.542c0.181-0.663,2.951-5.66,8.308-14.991l2.529-4.334h10.656
		h10.656l0.902,1.535c6.142,10.595,9.452,16.375,9.935,17.338l0.27,0.542l-0.722,1.265c-0.481,0.843-2.349,4.063-5.599,9.663
		l-4.786,8.398h-3.703c-2.287,0-5.81,0.029-10.565,0.09H25.39L24.215,53.475z M46.521,46.792c3.07-5.299,4.937-8.609,5.599-9.935
		l0.361-0.722l-0.361-0.812c-0.662-1.385-2.528-4.696-5.599-9.934l-2.438-4.335h-8.037h-8.127l-2.438,4.335
		c-3.25,5.659-5.087,8.969-5.509,9.934l-0.451,0.812l0.361,0.722c0.542,1.024,2.408,4.335,5.599,9.935l2.438,4.334h8.127h8.037
		L46.521,46.792z M29.092,42.366c-1.867-3.19-2.98-5.178-3.342-5.96l-0.271-0.451l0.451-0.723c0.421-0.843,1.505-2.799,3.251-5.87
		l1.626-2.708h5.147h5.147l1.625,2.708c1.746,3.071,2.86,5.027,3.341,5.87l0.362,0.723l-0.272,0.451
		c-0.361,0.782-1.474,2.77-3.34,5.96l-1.716,2.98h-5.147h-5.147L29.092,42.366z M40.922,41.283c0.723-1.204,1.293-2.168,1.716-2.89
		c0.421-0.723,0.692-1.22,0.812-1.491c0.121-0.27,0.182-0.572,0.182-0.902c0-0.331-0.061-0.633-0.182-0.903
		c-0.119-0.271-0.391-0.768-0.812-1.49c-0.481-0.723-1.054-1.686-1.716-2.89l-1.084-1.896h-3.883h-3.883l-0.903,1.535
		c-1.505,2.649-2.468,4.334-2.89,5.057l-0.271,0.542l0.181,0.361c0.361,0.722,1.565,2.83,3.612,6.322l0.271,0.543l3.883-0.093h3.883
		L40.922,41.283z"/>
</g>
</svg>
