<svg version="1.1" id="Layer_1" xmlns="http://www.w3.org/2000/svg" xmlns:xlink="http://www.w3.org/1999/xlink" x="0px" y="0px" width="100%" height="100%" viewBox="0 0 72 72" enable-background="new 0 0 72 72" xml:space="preserve">
<path fill="black" d="
	M 44.210938 4.6386719 C 34.122094 4.7607379 24.065635 8.6683163 16.378906 16.355469 C 5.15666 27.578575 2.03174 43.803003 6.9414062 57.853516 C 7.4551611 46.22253 12.998914 33.53501 23.275391 23.257812 C 33.492413 13.040175 46.193956 7.3902011 57.769531 6.8203125 C 53.390125 5.3100924 48.796775 4.5831873 44.210938 4.6386719 z M 49.53125 17.546875 C 41.3778 17.646024 33.249656 20.806487 27.037109 27.019531 C 17.96709 36.090041 15.444169 49.197147 19.412109 60.552734 C 19.827338 51.152551 24.303873 40.897545 32.609375 32.591797 C 40.866829 24.333851 51.133072 19.769165 60.488281 19.308594 C 56.948926 18.087994 53.237364 17.501807 49.53125 17.546875 z M 52.648438 28.757812 C 46.558984 28.831509 40.48956 31.191911 35.849609 35.832031 C 29.075843 42.606166 27.191089 52.397899 30.154297 60.878906 C 30.464357 53.858299 33.810657 46.197526 40.013672 39.994141 C 46.180781 33.826663 53.84501 30.418111 60.832031 30.074219 C 58.188538 29.162578 55.416371 28.724314 52.648438 28.757812 z M 46.183594 46.242188 L 52.580078 67.365234 L 56.546875 56.605469 L 67.306641 52.638672 L 46.183594 46.242188 z 
"></path>
</svg>