<svg version="1.1" xmlns="http://www.w3.org/2000/svg" xmlns:xlink="http://www.w3.org/1999/xlink" x="0px" y="0px" width="100%" height="100%" viewBox="0 0 72 72" enable-background="new 0 0 72 72" xml:space="preserve">
	<path fill="black" d="M0.912,69.265c0.114-0.114,0.879-1.051,2.297-2.807c10.037-12.022,15.85-21.123,17.438-27.305
		c0.226-0.851,0.34-1.844,0.34-2.977c0.057-0.907,0.1-1.347,0.127-1.318c0.029,0.028,1.63,0.07,4.807,0.127l4.763,0.169
		c0.057,0,0.085-0.623,0.085-1.871v-1.872l-3.063-4.423l-3.062-4.508l0.765-1.446c2.893-5.274,5.274-10.547,7.146-15.821
		c0.624-1.815,0.935-2.694,0.935-2.637c0.056,0.057,0.113,0.34,0.17,0.85c0.454,4.65,1.134,8.903,2.042,12.759
		c0.341,1.587,0.879,3.091,1.618,4.508c0.396,0.851,0.679,1.276,0.85,1.276c0.056,0,0.283-0.084,0.68-0.255
		c1.134-0.341,2.438-0.567,3.912-0.681c1.021-0.056,2.239,0.085,3.659,0.425c0.623,0.113,1.417,0.113,2.381,0
		c2.836-0.453,7.343-2.41,13.524-5.869c1.645-0.907,2.495-1.347,2.551-1.318c0.058,0.028-0.707,1.233-2.295,3.614
		c-3.46,5.274-5.586,9.102-6.381,11.484c-0.339,1.021-0.538,2.211-0.594,3.572c-0.059,1.531-0.229,2.835-0.511,3.913
		c-0.17,0.794-0.454,1.587-0.852,2.382c-0.341,0.567-0.396,0.936-0.17,1.105c0.398,0.51,1.532,1.248,3.402,2.212
		c2.155,1.076,6.04,2.523,11.654,4.338l2.126,0.935c-0.057,0-0.71,0.115-1.956,0.341c-4.99,0.794-10.292,2.014-15.908,3.658
		l-2.891,0.936l-2.976-2.892c-2.383-2.383-3.773-3.686-4.17-3.913c-0.112-0.057-0.396-0.113-0.85-0.171
		c-0.739,0-1.531-0.112-2.384-0.341c-0.452-0.111-0.707-0.141-0.764-0.083c-0.114,0.113-0.227,1.616-0.34,4.508
		c-0.114,3.232-0.199,5.019-0.256,5.358c-0.737-0.057-1.645-0.085-2.721-0.085c-3.006-0.058-5.728,0.312-8.166,1.105
		c-2.382,0.738-8.279,3.544-17.693,8.421c-5.557,2.836-8.563,4.365-9.016,4.594H0.912z M44.293,42.386
		c2.836-0.341,5.019-1.645,6.549-3.913c1.985-3.063,2.213-6.125,0.681-9.187c-0.397-0.85-0.964-1.616-1.7-2.296
		c-1.362-1.304-2.949-2.183-4.764-2.637c-0.397-0.057-0.965-0.085-1.702-0.085c-0.794,0-1.389,0.028-1.785,0.085
		c-3.517,0.737-5.87,2.75-7.061,6.039c-0.85,2.382-0.708,4.65,0.426,6.805c1.531,3.119,3.999,4.876,7.401,5.272
		C42.96,42.527,43.612,42.498,44.293,42.386z"/>
</svg>
