<?xml version="1.0" encoding="utf-8"?>
<!-- Generator: Adobe Illustrator 21.0.0, SVG Export Plug-In . SVG Version: 6.00 Build 0)  -->
<svg version="1.1" id="Layer_1" xmlns="http://www.w3.org/2000/svg" xmlns:xlink="http://www.w3.org/1999/xlink" x="0px" y="0px"
	 viewBox="0 0 60 60" style="enable-background:new 0 0 60 60;" xml:space="preserve" width="100%" height="100%">
<style type="text/css">
	.st0{fill:black;}
</style>
<path class="st0" d="M58.5,30c0-4.8-3.7-8.7-8.4-9C46.6,13.4,39,8,30,8S13.4,13.4,9.9,21c-4.7,0.3-8.4,4.2-8.4,9
	c0,4.8,3.7,8.7,8.4,9C13.4,46.6,21,52,30,52s16.6-5.4,20.1-13C54.8,38.7,58.5,34.8,58.5,30z M30,15c5.9,0,11,3.4,13.4,8.4
	c-1.1,1-1.9,2.2-2.4,3.6h-8l-3-3l-3,3h-8c-0.5-1.4-1.3-2.7-2.4-3.6C19,18.4,24.1,15,30,15z M5.1,30c0-3,2.4-5.4,5.4-5.4
	c3,0,5.4,2.4,5.4,5.4c0,3-2.4,5.4-5.4,5.4C7.5,35.4,5.1,33,5.1,30z M30,45c-5.9,0-11-3.4-13.4-8.4c1.1-1,1.9-2.2,2.4-3.6h8.1L30,36
	l2.9-2.9H41c0.5,1.4,1.3,2.6,2.4,3.6C41,41.6,35.9,45,30,45z M49.5,35.8c-3.2,0-5.8-2.6-5.8-5.8c0-3.2,2.6-5.9,5.8-5.9
	s5.8,2.6,5.8,5.9C55.3,33.2,52.7,35.8,49.5,35.8z"/>
</svg>
