<?xml version="1.0" encoding="utf-8"?>
<!-- Generator: Adobe Illustrator 21.0.0, SVG Export Plug-In . SVG Version: 6.00 Build 0)  -->
<svg version="1.1" id="Layer_1" xmlns="http://www.w3.org/2000/svg" xmlns:xlink="http://www.w3.org/1999/xlink" x="0px" y="0px"
	 viewBox="0 0 30 30" style="enable-background:new 0 0 30 30;" xml:space="preserve" width="100%" height="100%">
<style type="text/css">
	.st0{fill:black;}
</style>
<g>
	<g>
		<path class="st0" d="M11.5,8.8l8.4,6.2l-8.5,6.2L3,27.5L10.2,15L3,2.5L11.5,8.8z"/>
	</g>
	<g>
		<g>
			<g>
				<path class="st0" d="M21.5,3.1l2.8,2.1l-2.8,2.1l-2.8,2.1l2.4-4.1L18.7,1L21.5,3.1z"/>
			</g>
		</g>
		<g>
			<g>
				<path class="st0" d="M21.5,22.8l2.8,2.1l-2.8,2.1L18.7,29l2.4-4.1l-2.4-4.1L21.5,22.8z"/>
			</g>
		</g>
		<g>
			<path class="st0" d="M22.9,11.9L27,15l-4.2,3l-4.2,3.1l3.5-6.1l-3.5-6.1L22.9,11.9z"/>
		</g>
	</g>
</g>
</svg>
