<svg version="1.1" id="Layer_1" xmlns="http://www.w3.org/2000/svg" xmlns:xlink="http://www.w3.org/1999/xlink" x="0px" y="0px" width="100%" height="100%" viewBox="0 0 72 72" enable-background="new 0 0 72 72" xml:space="preserve">
<path fill="black" d="
	M 41.818359 6.8359375 L 41.818359 16.755859 A 20.121508 20.121508 0 0 1 55.25 30.181641 L 65.140625 30.181641 A 29.744837 29.744837 0 0 0 41.818359 6.8359375 z M 30.181641 6.8613281 A 29.744837 29.744837 0 0 0 6.8417969 30.181641 L 16.753906 30.181641 A 20.121508 20.121508 0 0 1 30.181641 16.744141 L 30.181641 6.8613281 z M 36 26.464844 A 9.5358448 9.5358448 0 0 0 26.464844 36 A 9.5358448 9.5358448 0 0 0 36 45.535156 A 9.5358448 9.5358448 0 0 0 45.535156 36 A 9.5358448 9.5358448 0 0 0 36 26.464844 z M 6.859375 41.818359 A 29.744837 29.744837 0 0 0 30.181641 65.164062 L 30.181641 55.244141 A 20.121508 20.121508 0 0 1 16.75 41.818359 L 6.859375 41.818359 z M 55.246094 41.818359 A 20.121508 20.121508 0 0 1 41.818359 55.255859 L 41.818359 65.138672 A 29.744837 29.744837 0 0 0 65.158203 41.818359 L 55.246094 41.818359 z
"></path>
</svg>