<svg version="1.1" id="Layer_1" xmlns="http://www.w3.org/2000/svg" xmlns:xlink="http://www.w3.org/1999/xlink" x="0px" y="0px" width="100%" height="100%" viewBox="0 0 72 72" enable-background="new 0 0 72 72" xml:space="preserve">
<path fill="black" d="
	m 7.4048068,7.1307054 0,2.5889904 0,20.4684222 7.2602742,0 0,11.623601 -7.2602742,0 0,2.5872 0,20.468422 23.2758482,0 0,-7.344424 10.637062,0 0,7.344424 23.279429,0 0,-23.055622 -7.262064,0 0,-11.623601 7.262064,0 0,-23.0574126 -23.279429,0 0,2.5889904 0,4.7572252 -10.637062,0 0,-7.3462156 -23.2758482,0 z m 5.1744002,5.1761906 12.927047,0 0,12.706822 -12.927047,0 0,-12.706822 z m 33.91291,0 12.928839,0 0,12.706822 -12.928839,0 0,-12.706822 z m -15.811462,7.670287 10.637062,0 0,10.210935 10.517103,0 0,11.623601 -10.517103,0 0,2.5872 0,7.623736 -10.637062,0 0,-10.210936 -10.515313,0 0,-11.623601 10.515313,0 0,-10.210935 z m -18.101448,27.008936 12.927047,0 0,12.706822 -12.927047,0 0,-12.706822 z m 33.91291,0 12.928839,0 0,12.706822 -12.928839,0 0,-12.706822 z
"></path>
</svg>