<?xml version="1.0" encoding="utf-8"?>
<!-- Generator: Adobe Illustrator 16.0.0, SVG Export Plug-In . SVG Version: 6.00 Build 0)  -->
<!DOCTYPE svg PUBLIC "-//W3C//DTD SVG 1.1//EN" "http://www.w3.org/Graphics/SVG/1.1/DTD/svg11.dtd">
<svg version="1.1" xmlns="http://www.w3.org/2000/svg" xmlns:xlink="http://www.w3.org/1999/xlink" x="0px" y="0px"
	 width="100%" height="100%" viewBox="0 0 72 72" enable-background="new 0 0 72 72" xml:space="preserve">
<g>
	<path fill='black' d="M66.13,42.879L55.896,58.6l-5.158-7.367c-1.965,1.908-4.203,3.383-6.715,4.42c-2.51,1.037-5.213,1.557-8.104,1.557
		c-2.838,0-5.526-0.533-8.064-1.596c-2.538-1.064-4.763-2.525-6.673-4.381L15.778,58.6L5.87,42.879l9.743-1.719
		c-0.328-1.691-0.491-3.303-0.491-4.831c0-2.348,0.382-4.586,1.146-6.715c0.764-2.128,1.815-4.065,3.152-5.812
		s2.934-3.248,4.79-4.503s3.848-2.183,5.977-2.784l-3.439-8.351h18.749l-3.438,8.433c2.129,0.655,4.094,1.624,5.896,2.906
		c1.801,1.283,3.37,2.784,4.707,4.503c1.338,1.719,2.361,3.616,3.07,5.69s1.063,4.285,1.063,6.633c0,1.528-0.163,3.139-0.491,4.831
		L66.13,42.879z M50.818,40.096c0.109-0.6,0.232-1.199,0.369-1.801c0.137-0.6,0.205-1.256,0.205-1.965
		c0-1.746-0.287-3.412-0.859-4.994c-0.573-1.584-1.365-3.029-2.375-4.339s-2.21-2.443-3.604-3.398
		c-1.392-0.955-2.906-1.651-4.543-2.088l-3.849,9.662l-4.012-9.662c-1.692,0.437-3.248,1.119-4.667,2.047
		c-1.419,0.928-2.633,2.033-3.643,3.316c-1.01,1.283-1.801,2.742-2.375,4.38c-0.573,1.637-0.86,3.33-0.86,5.076
		c0,1.418,0.109,2.674,0.328,3.766l9.579-1.719l-5.895,8.352c1.419,1.527,3.098,2.758,5.036,3.686s4.025,1.391,6.263,1.391
		c2.293,0,4.422-0.463,6.388-1.391c1.965-0.928,3.629-2.156,4.993-3.686l-5.813-8.352L50.818,40.096z"/>
</g>
</svg>
