<?xml version="1.0" encoding="utf-8"?>
<!-- Generator: Adobe Illustrator 16.0.0, SVG Export Plug-In . SVG Version: 6.00 Build 0)  -->
<!DOCTYPE svg PUBLIC "-//W3C//DTD SVG 1.1//EN" "http://www.w3.org/Graphics/SVG/1.1/DTD/svg11.dtd">
<svg version="1.1" xmlns="http://www.w3.org/2000/svg" xmlns:xlink="http://www.w3.org/1999/xlink" x="0px" y="0px"
	 width="100%" height="100%" viewBox="0 0 72 72" enable-background="new 0 0 72 72" xml:space="preserve">
<g>
	<path fill="black" d="M71.94,16.423C55.288,23.291,45.772,17.796,43.395-0.06c-2.379,17.855-11.896,23.351-28.548,16.483
		c9.757,7.51,12.84,15.021,9.258,22.532c1.474-0.984,2.983-1.979,4.531-2.979c0.585-4.216-0.008-8.434-1.835-12.651
		c6.914-0.798,12.446-3.992,16.594-9.58c4.146,5.588,9.679,8.782,16.593,9.58c-2.767,6.387-2.767,12.773,0,19.159
		c-6.914,0.8-12.446,3.991-16.593,9.581c-2.477-3.338-5.457-5.799-8.919-7.429c-1.444,0.744-2.877,1.468-4.289,2.171
		c7.289,1.354,11.695,7.703,13.208,19.061c2.378-17.856,11.894-23.351,28.546-16.48C57.668,38.398,57.668,27.41,71.94,16.423z"/>
	<path fill="black" d="M3.807,56.31c0.002,0.002,0.032-0.015,0.085-0.051c-0.056,0.025-0.083,0.042-0.085,0.047V56.31z"/>
	<path fill="black" d="M49.459,31.03c0.111-0.402,0.102-0.762-0.061-1.044c-0.875-1.515-5.922-0.24-7.727,0.8
		C23.22,41.442,5.278,55.322,3.893,56.259c1.509-0.735,22.62-9.402,40.949-19.983C46.309,35.426,48.986,32.797,49.459,31.03z"/>
</g>
</svg>
