<svg version="1.1" xmlns="http://www.w3.org/2000/svg" xmlns:xlink="http://www.w3.org/1999/xlink" x="0px" y="0px"
	 width="100%" height="100%" viewBox="0 0 72 72" enable-background="new 0 0 72 72" xml:space="preserve">
<g>
	<path fill="black" d="M42.709,33.489c0.975,0.818,3.445,2.014,4.918,2.014c0.424,0,0.766-0.099,0.963-0.335
		c0.885-1.056-1.418-4.447-2.672-5.502C33.05,18.869,17.934,9.323,16.874,8.555C17.818,9.467,29.928,22.766,42.709,33.489z"/>
	<path fill="black" d="M4.787,5.533L4.787,5.533C4.783,5.537,4.808,5.562,4.861,5.608C4.818,5.558,4.793,5.533,4.787,5.533z"/>
	<path fill="black" d="M16.815,8.505l0,0.001c-0.002,0.002,0.017,0.019,0.059,0.048C16.84,8.522,16.82,8.505,16.815,8.505z"/>
	<path fill="black" d="M7.759,17.563c-0.003,0.002,0.014,0.022,0.049,0.059C7.78,17.583,7.763,17.563,7.759,17.563L7.759,17.563z" />
	<path fill="black" d="M7.808,17.622c0.772,1.063,10.389,16.263,21.109,29.042c0.893,1.063,3.453,2.871,4.862,2.871
		c0.259,0,0.479-0.062,0.643-0.198c1.055-0.886-0.625-4.626-1.679-5.881C21.948,30.589,8.719,18.563,7.808,17.622z"/>
	<path fill="black" d="M43.342,45.496c0.443,0,0.811-0.106,1.057-0.352c1.316-1.316-1.385-6.152-2.951-7.719
		C25.414,21.393,6.205,6.772,4.861,5.608C6.033,6.957,20.755,26.269,36.68,42.193C37.956,43.469,41.395,45.496,43.342,45.496z"/>
	<path fill="black" d="M71.453,38.826c-17.031-1.387-18.521-6.942-4.463-16.661c-4.965,2.351-8.754,3.526-11.365,3.526
		c-5.516,0-5.795-5.241-0.832-15.722c-4.395,6.355-7.936,9.532-10.627,9.532c-3.262,0-5.273-4.666-6.033-13.997
		c-0.547,6.72-1.747,11.006-3.591,12.886c0.515,0.376,1.038,0.762,1.561,1.149c0.838-0.936,1.507-2.153,2.031-3.557
		c1.168,3.138,3.021,5.43,6.033,5.43c1.676,0,3.457-0.783,5.41-2.404c-0.447,2.608-0.199,4.601,0.73,6.071
		c0.729,1.151,2.242,2.523,5.318,2.523c0.713,0,1.486-0.071,2.328-0.217c-2.063,2.482-2.783,4.689-2.236,6.728
		c0.547,2.041,2.277,3.595,5.311,4.712c-3.033,1.117-4.764,2.671-5.311,4.711c-0.547,2.038,0.174,4.248,2.236,6.728
		c-0.842-0.145-1.615-0.216-2.328-0.216c-3.076,0-4.59,1.372-5.318,2.523c-0.93,1.469-1.18,3.462-0.73,6.071
		c-1.953-1.622-3.734-2.405-5.412-2.406c-3.01,0-4.863,2.292-6.031,5.432c-1.168-3.14-3.021-5.432-6.032-5.432
		c-1.676,0-3.458,0.783-5.41,2.406c0.447-2.609,0.197-4.602-0.732-6.071c-0.729-1.151-2.243-2.523-5.319-2.523
		c-0.712,0-1.486,0.071-2.327,0.216c2.063-2.479,2.783-4.689,2.237-6.728c-0.547-2.04-2.277-3.594-5.31-4.711
		c1.5-0.553,2.678-1.212,3.555-1.984c-0.385-0.522-0.771-1.043-1.146-1.557c-1.907,1.816-6.179,2.998-12.837,3.541
		c17.032,1.388,18.521,6.941,4.464,16.659c4.964-2.351,8.751-3.525,11.364-3.525c5.517,0.001,5.794,5.241,0.832,15.723
		c4.394-6.356,7.937-9.533,10.628-9.533c3.26,0,5.272,4.666,6.032,13.997c0.76-9.332,2.771-13.998,6.033-13.997
		c2.689,0.001,6.234,3.178,10.627,9.533C49.83,57.2,50.105,51.96,55.625,51.96c2.613,0,6.4,1.175,11.365,3.525
		C52.932,45.768,54.422,40.214,71.453,38.826z"/>
</g>
</svg>
