<?xml version="1.0" encoding="utf-8"?>
<!-- Generator: Adobe Illustrator 16.0.0, SVG Export Plug-In . SVG Version: 6.00 Build 0)  -->
<!DOCTYPE svg PUBLIC "-//W3C//DTD SVG 1.1//EN" "http://www.w3.org/Graphics/SVG/1.1/DTD/svg11.dtd">
<svg version="1.1" id="Layer_1" xmlns="http://www.w3.org/2000/svg" xmlns:xlink="http://www.w3.org/1999/xlink" x="0px" y="0px"
	 width="100%" height="100%" viewBox="0 0 72 72" enable-background="new 0 0 72 72" xml:space="preserve">
<g>
	<path fill='black' d="M40.094,31.046l28.574,22.517L36,37.516L3.332,12.625L40.094,31.046z M37.965,47.094l8.926,6.223l-2.621-0.735
		c-0.873,0.546-1.787,1.022-2.742,1.433s-1.951,0.777-2.988,1.105l-5.978,14.9l-2.374-15.064l-2.211-0.818l-7.532,4.748l1.965-8.351
		c-0.437-0.384-0.833-0.765-1.187-1.146c-0.355-0.383-0.696-0.793-1.023-1.229L6.361,51.434l10.971-9.17
		c-0.109-0.437-0.205-0.887-0.287-1.352c-0.082-0.464-0.15-0.914-0.205-1.352l-8.433-2.537l8.679-2.947
		c0.055-0.164,0.109-0.328,0.164-0.492s0.082-0.354,0.082-0.573l4.339,2.947l-5.322,0.981l9.825,3.275l-7.287,5.158l9.661-0.818
		L25.52,52.17l6.059-4.339l2.211,11.053L37.965,47.094z M36.082,21.222l-6.141-4.258c0.382-0.273,0.792-0.573,1.228-0.9
		s0.873-0.572,1.31-0.736L33.707,1.98l8.68,11.38c1.09,0.056,2.127,0.22,3.109,0.492c0.982,0.273,1.938,0.627,2.865,1.064
		l9.826-4.339l-3.111,9.906c0.982,1.419,1.828,2.976,2.538,4.668l8.104,3.111l-7.287,4.012c-0.055,0.6-0.137,1.228-0.244,1.883
		c-0.109,0.654-0.22,1.283-0.328,1.883l-5.567-3.766l7.123-3.604l-11.054-1.638l4.83-10.645L42.55,23.432L36.328,10.66
		L36.082,21.222z"/>
</g>
</svg>
