<?xml version="1.0" encoding="utf-8"?>
<!-- Generator: Adobe Illustrator 16.0.0, SVG Export Plug-In . SVG Version: 6.00 Build 0)  -->
<!DOCTYPE svg PUBLIC "-//W3C//DTD SVG 1.1//EN" "http://www.w3.org/Graphics/SVG/1.1/DTD/svg11.dtd">
<svg version="1.1" id="Layer_1" xmlns="http://www.w3.org/2000/svg" xmlns:xlink="http://www.w3.org/1999/xlink" x="0px" y="0px"
	 width="100%" height="100%" viewBox="0 0 72 72" enable-background="new 0 0 72 72" xml:space="preserve">
<g id="dmg">
	<path fill="black" d="M53.89,57.656c-2.401-1.528-4.681-2.798-6.837-3.808c-2.155-1.01-4.094-1.433-5.813-1.269
		c-1.72,0.163-3.152,1.077-4.299,2.742c-1.146,1.665-1.883,4.436-2.21,8.311c-0.928-3.875-2.143-6.659-3.644-8.352
		c-1.501-1.691-3.343-2.497-5.526-2.415c-2.184,0.082-4.763,0.969-7.737,2.661s-6.4,3.984-10.275,6.877
		c2.948-3.93,5.349-7.286,7.205-10.07c1.856-2.783,2.961-5.172,3.316-7.164s-0.218-3.644-1.719-4.953
		c-1.501-1.311-4.08-2.402-7.737-3.275c3.712-0.327,6.427-0.969,8.146-1.924s2.729-2.156,3.029-3.603
		c0.3-1.446,0.027-3.152-0.818-5.117c-0.846-1.965-1.979-4.176-3.398-6.632c2.401,1.474,4.571,2.634,6.509,3.479
		c1.938,0.846,3.603,1.119,4.995,0.819c1.392-0.3,2.511-1.365,3.357-3.193c0.846-1.829,1.433-4.708,1.76-8.638
		c0.982,3.985,2.388,6.673,4.216,8.065c1.829,1.392,4.08,1.788,6.755,1.187s5.772-2.061,9.293-4.38s7.519-5.199,11.994-8.638
		c-3.548,4.476-6.536,8.433-8.965,11.872c-2.429,3.438-3.984,6.44-4.667,9.006s-0.382,4.722,0.9,6.468
		c1.283,1.747,3.89,3.166,7.819,4.257c-3.984,0.164-6.782,0.724-8.393,1.679c-1.609,0.955-2.442,2.211-2.497,3.767
		s0.45,3.37,1.515,5.444S52.471,55.199,53.89,57.656z"/>
</g>
</svg>
