<?xml version="1.0" encoding="utf-8"?>
<!-- Generator: Adobe Illustrator 16.0.0, SVG Export Plug-In . SVG Version: 6.00 Build 0)  -->
<!DOCTYPE svg PUBLIC "-//W3C//DTD SVG 1.1//EN" "http://www.w3.org/Graphics/SVG/1.1/DTD/svg11.dtd">
<svg version="1.1" id="Layer_1" xmlns="http://www.w3.org/2000/svg" xmlns:xlink="http://www.w3.org/1999/xlink" x="0px" y="0px"
	 width="100%" height="100%" viewBox="0 0 72 72" enable-background="new 0 0 72 72" xml:space="preserve">
<path fill="{color2}" d="M36.707,63.232c-0.391,0.392-1.023,0.392-1.414,0L8.767,36.707c-0.39-0.392-0.391-1.023,0-1.414
	L35.293,8.767c0.391-0.39,1.023-0.39,1.414,0l26.525,26.526c0.392,0.391,0.392,1.022,0,1.414L36.707,63.232z"/>
<path fill="black" d="M36.472,54.168c-0.261,0.261-0.683,0.261-0.943,0L17.833,36.472c-0.26-0.261-0.261-0.683,0-0.943
	l17.696-17.697c0.26-0.26,0.682-0.26,0.943,0l17.696,17.697c0.261,0.26,0.261,0.682,0,0.943L36.472,54.168z"/>
</svg>
