<?xml version="1.0" encoding="utf-8"?>
<!-- Generator: Adobe Illustrator 16.0.0, SVG Export Plug-In . SVG Version: 6.00 Build 0)  -->
<!DOCTYPE svg PUBLIC "-//W3C//DTD SVG 1.1//EN" "http://www.w3.org/Graphics/SVG/1.1/DTD/svg11.dtd">
<svg version="1.1" id="Layer_1" xmlns="http://www.w3.org/2000/svg" xmlns:xlink="http://www.w3.org/1999/xlink" x="0px" y="0px"
	 width="100%" height="100%" viewBox="0 0 72 72" enable-background="new 0 0 72 72" xml:space="preserve">
<g>
	<path fill='black' d="M36,1.326c4.795,0,9.313,0.893,13.551,2.676c4.238,1.786,7.92,4.255,11.043,7.404c3.123,3.15,5.592,6.832,7.404,11.042
		c1.811,4.211,2.717,8.714,2.717,13.509c0,4.798-0.906,9.314-2.717,13.554c-1.813,4.237-4.281,7.919-7.404,11.042
		s-6.805,5.59-11.043,7.401c-4.236,1.812-8.756,2.72-13.551,2.72c-4.795,0-9.298-0.908-13.509-2.72
		c-4.21-1.812-7.878-4.278-11-7.401c-3.124-3.123-5.604-6.805-7.445-11.041c-1.841-4.24-2.76-8.757-2.76-13.555
		c0-4.795,0.919-9.297,2.76-13.509c1.84-4.21,4.321-7.892,7.445-11.042c3.122-3.149,6.79-5.618,11-7.404
		C26.702,2.219,31.205,1.326,36,1.326z M6.22,35.957c0,4.63,0.947,8.938,2.845,12.925c1.895,3.987,4.543,7.373,7.946,10.161h0.251
		c3.066-0.333,5.939-1.184,8.617-2.55c2.678-1.366,5.018-3.249,7.026-5.647c2.007-2.396,3.458-5.046,4.35-7.943
		c0.891-2.899,1.197-5.885,0.92-8.951c-0.223-2.788-0.936-5.424-2.132-7.905c-1.2-2.479-2.749-4.655-4.643-6.524
		c-1.897-1.867-4.086-3.388-6.566-4.559c-2.483-1.172-5.09-1.867-7.822-2.093c-3.345,2.791-5.98,6.18-7.904,10.165
		C7.182,27.021,6.22,31.328,6.22,35.957z M28.389,7.098h0.168V6.932L28.389,7.098z M36,65.822c4.127,0,8.016-0.797,11.67-2.385
		c3.652-1.59,6.818-3.723,9.494-6.399s4.811-5.826,6.398-9.451c1.59-3.626,2.383-7.5,2.383-11.63c0-4.125-0.793-8.001-2.383-11.627
		c-1.588-3.624-3.723-6.789-6.398-9.494c-2.676-2.704-5.842-4.838-9.494-6.398C44.016,6.876,40.127,6.094,36,6.094h-0.668
		c0.502,0.279,1.003,0.6,1.504,0.961c0.502,0.363,1.004,0.769,1.506,1.215L35.5,11.614c1.059,0.837,2.063,1.771,3.01,2.803
		c0.945,1.031,1.842,2.104,2.678,3.22l3.43-2.425c0.947,1.339,1.783,2.677,2.512,4.015c0.725,1.34,1.336,2.733,1.84,4.183
		l-3.934,1.507c0.447,1.339,0.824,2.676,1.129,4.016c0.309,1.338,0.518,2.732,0.629,4.184l4.35-0.504v0.252
		c0,0.501,0.014,1.019,0.043,1.548c0.025,0.528,0.041,1.044,0.041,1.546c0,1.004-0.057,2.036-0.168,3.098
		c-0.113,1.059-0.225,2.09-0.334,3.094l-4.35-0.752c-0.17,1.395-0.461,2.748-0.881,4.058c-0.416,1.31-0.934,2.604-1.547,3.889
		l3.932,1.841c-0.67,1.452-1.438,2.83-2.301,4.143c-0.865,1.313-1.799,2.578-2.803,3.809l-3.18-2.846H39.43
		c-0.895,1.117-1.842,2.119-2.848,3.011c-1.001,0.894-2.063,1.757-3.178,2.593l2.425,3.598v0.335H36V65.822z"/>
</g>
</svg>
