<?xml version="1.0" encoding="utf-8"?>
<!-- Generator: Adobe Illustrator 16.0.0, SVG Export Plug-In . SVG Version: 6.00 Build 0)  -->
<!DOCTYPE svg PUBLIC "-//W3C//DTD SVG 1.1//EN" "http://www.w3.org/Graphics/SVG/1.1/DTD/svg11.dtd">
<svg version="1.1" id="Layer_1" xmlns="http://www.w3.org/2000/svg" xmlns:xlink="http://www.w3.org/1999/xlink" x="0px" y="0px"
	 width="100%" height="100%" viewBox="0 0 72 72" enable-background="new 0 0 72 72" xml:space="preserve">
<g>
	<path fill='black' d="M36,1.076c4.795,0,9.313,0.906,13.551,2.718c4.24,1.813,7.936,4.31,11.086,7.487c3.148,3.18,5.658,6.888,7.527,11.127
		c1.867,4.236,2.803,8.756,2.803,13.552c0,4.797-0.936,9.324-2.803,13.591c-1.869,4.268-4.379,7.988-7.527,11.168
		c-3.15,3.18-6.846,5.676-11.086,7.487c-4.238,1.812-8.756,2.718-13.551,2.718c-4.797,0-9.314-0.906-13.552-2.718
		c-4.238-1.812-7.947-4.308-11.125-7.487c-3.179-3.18-5.689-6.9-7.528-11.168c-1.841-4.267-2.761-8.796-2.761-13.594
		c0-4.795,0.92-9.313,2.76-13.551c1.841-4.237,4.35-7.945,7.528-11.125c3.179-3.18,6.888-5.676,11.125-7.487
		C26.686,1.982,31.203,1.076,36,1.076z M25.292,7.936c-2.844,1.06-5.45,2.524-7.821,4.393c-2.372,1.87-4.406,4.029-6.107,6.482
		c-1.701,2.455-3.04,5.133-4.015,8.031c-0.977,2.898-1.464,5.938-1.464,9.118c0,3.233,0.502,6.329,1.505,9.284
		c1.004,2.957,2.371,5.716,4.1,8.283l3.179-2.008c0.613-0.445,1.254-0.892,1.924-1.34c0.669-0.445,1.366-0.891,2.092-1.339
		c0.779-0.501,1.588-1.017,2.424-1.548c0.836-0.527,1.673-1.016,2.509-1.463c0.948-0.668,1.924-1.339,2.929-2.007
		c1.003-0.671,1.979-1.313,2.928-1.925c-1.562,0.166-3.167,0.457-4.81,0.877c-1.646,0.42-3.166,0.879-4.559,1.381
		c-1.395,0.502-2.566,0.92-3.514,1.256l-1.338,0.585l0.083-0.167c1.004-0.559,2.328-1.354,3.973-2.385
		c1.645-1.033,3.192-2.146,4.642-3.348c1.449-1.195,2.663-2.396,3.639-3.596c0.975-1.199,1.352-2.217,1.13-3.054
		c-0.28-1.058-0.81-1.993-1.591-2.804c-0.782-0.809-1.617-1.49-2.51-2.049c-0.891-0.558-1.785-0.977-2.677-1.256
		c-0.891-0.277-1.561-0.445-2.006-0.501l0.168-0.086l1.337-0.166c0.893-0.112,1.924-0.321,3.095-0.628
		c1.172-0.307,2.314-0.711,3.431-1.213c1.115-0.502,1.924-1.143,2.426-1.924c0.391-0.781,0.139-2.453-0.752-5.02
		C28.75,15.241,27.299,11.951,25.292,7.936z M14.5,56.954c1.005,1.062,2.12,2.063,3.346,3.011c1.227,0.95,2.51,1.787,3.848,2.512
		c2.176-2.787,4.294-5.535,6.359-8.238c2.063-2.706,3.874-5.088,5.437-7.15c1.896-2.455,3.654-4.771,5.271-6.943h0.168
		c0.389,0.447,0.711,0.894,0.961,1.338c0.252,0.449,0.404,0.726,0.459,0.838c0.613-0.894,1.256-1.688,1.924-2.385
		c0.672-0.695,1.396-1.268,2.178-1.716c2.008-1.004,3.902-1.532,5.688-1.589c-0.113-0.611-0.184-1.281-0.209-2.007
		c-0.029-0.726,0.014-1.449,0.125-2.176c0.055-0.669,0.264-1.632,0.627-2.886c0.361-1.256,1.213-2.774,2.553-4.56h-0.336
		c-2.51,0-4.518-0.362-6.021-1.089c-0.447-0.223-0.893-0.502-1.34-0.835c-0.447-0.335-0.838-0.781-1.172-1.339
		c-0.223,0.166-0.432,0.318-0.627,0.459c-0.195,0.14-0.406,0.266-0.627,0.376c-0.781,0.614-1.814,0.92-3.096,0.92
		c-1.508,0-3.068-0.556-4.685-1.672c0,0.894-0.098,1.589-0.292,2.091c-0.196,0.502-0.377,0.895-0.543,1.172
		c-0.558,1.116-1.563,2.178-3.012,3.18c1.004,1.283,1.617,2.623,1.841,4.016c0.447,1.449,0.252,3.066-0.586,4.852
		c0.557,0.057,1.074,0.124,1.549,0.209c0.471,0.084,0.933,0.236,1.378,0.459v-0.083c0.335-0.11,0.697-0.252,1.086-0.418
		c0.391-0.167,0.697-0.336,0.922-0.502c0.391-0.223,0.793-0.459,1.213-0.711c0.42-0.253,0.793-0.517,1.129-0.795
		c0.391-0.224,0.809-0.502,1.256-0.837c-0.279,0.559-0.67,1.115-1.172,1.672c-0.502,0.559-1.004,1.118-1.506,1.674
		c-1.227,1.506-2.01,2.344-2.343,2.51c-3.459,2.957-6.999,5.787-10.624,8.492C22.001,51.504,18.292,54.223,14.5,56.954z M36,66.072
		c4.127,0,8.018-0.78,11.67-2.344c3.65-1.559,6.844-3.719,9.576-6.481c2.732-2.759,4.896-5.966,6.482-9.62
		c1.59-3.652,2.385-7.54,2.385-11.667c0-2.565-0.309-4.979-0.92-7.237c-0.613-2.257-1.396-4.416-2.342-6.482
		c-2.01,1.564-3.541,2.971-4.602,4.227c-1.061,1.254-1.842,2.383-2.344,3.389c-0.613,1.061-0.977,2.063-1.086,3.012
		c-0.223,1.672-0.057,3.193,0.504,4.56c0.555,1.365,1.213,2.552,1.965,3.556s1.49,1.812,2.215,2.426l1.088,0.838l-0.334,0.166
		l-1.756-0.754c-1.729-0.668-3.207-1.213-4.434-1.631c-1.229-0.414-2.426-0.627-3.598-0.627c-1.283,0-2.539,0.363-3.766,1.088
		c-0.781,0.447-1.535,1.242-2.26,2.383c-0.725,1.146-1.379,2.426-1.965,3.848c-0.586,1.424-1.115,2.889-1.59,4.393
		c-0.475,1.509-0.865,2.889-1.172,4.142c-0.307,1.258-0.545,2.3-0.711,3.14c-0.168,0.838-0.25,1.284-0.25,1.34l-0.252-0.504v-1.256
		c-0.057-0.893-0.127-1.979-0.209-3.262c-0.084-1.283-0.209-2.721-0.377-4.311c-0.168-1.588-0.363-3.051-0.586-4.393
		c-0.111,0.112-0.223,0.239-0.334,0.379c-0.113,0.139-0.195,0.266-0.252,0.375c-0.727,1.34-1.396,2.538-2.007,3.596
		c-0.614,1.063-1.255,2.094-1.924,3.098c-0.614,1.061-1.284,2.134-2.008,3.22c-0.725,1.087-1.45,2.19-2.175,3.306l-1.673,2.594
		c1.394,0.502,2.83,0.878,4.308,1.13C32.751,65.945,34.327,66.072,36,66.072z M60.842,19.146c-2.73-4.018-6.26-7.225-10.58-9.623
		C45.941,7.128,41.188,5.928,36,5.928c-1.561,0-3.068,0.098-4.518,0.293c-1.45,0.195-2.844,0.516-4.182,0.961
		c2.063,2.566,3.833,4.617,5.312,6.149c1.475,1.532,2.717,2.69,3.721,3.47c1.003,0.781,1.8,1.297,2.382,1.549
		c0.59,0.25,1.02,0.375,1.301,0.375c0.221,0,0.443-0.054,0.668-0.166c0.891-0.502,1.674-1.297,2.342-2.384
		c0.668-1.089,1.24-2.176,1.715-3.263c0.473-1.089,0.822-2.021,1.045-2.805l0.334-1.17l0.17,0.25c-0.059,0.614-0.059,1.451,0,2.512
		c0.053,1.061,0.168,2.131,0.332,3.221c0.17,1.087,0.434,2.063,0.797,2.928c0.361,0.866,0.85,1.438,1.463,1.715
		c0.947,0.39,2.285,0.584,4.016,0.584c1.004,0,2.176-0.068,3.514-0.209C57.75,19.801,59.227,19.535,60.842,19.146z"/>
</g>
</svg>
