<?xml version="1.0" encoding="utf-8"?>
<!-- Generator: Adobe Illustrator 16.0.0, SVG Export Plug-In . SVG Version: 6.00 Build 0)  -->
<!DOCTYPE svg PUBLIC "-//W3C//DTD SVG 1.1//EN" "http://www.w3.org/Graphics/SVG/1.1/DTD/svg11.dtd">
<svg version="1.1" id="Layer_1" xmlns="http://www.w3.org/2000/svg" xmlns:xlink="http://www.w3.org/1999/xlink" x="0px" y="0px"
	 width="100%" height="100%" viewBox="0 0 72 72" enable-background="new 0 0 72 72" xml:space="preserve">
<g>
	<path  fill="black" d="M36,3.182C17.875,3.182,3.182,17.875,3.182,36S17.875,68.818,36,68.818
		S68.818,54.125,68.818,36S54.125,3.182,36,3.182z M36,63.045C21.063,63.045,8.955,50.937,8.955,36S21.063,8.955,36,8.955
		S63.045,21.063,63.045,36S50.937,63.045,36,63.045z"/>
	<path  fill="black" d="M41.474,13.323L13.59,41.207c0.856,3.518,2.517,6.718,4.779,9.396L50.87,18.102
		C48.191,15.84,44.991,14.179,41.474,13.323z"/>
	<path  fill="black" d="M53.63,20.862L21.129,53.363c2.679,2.262,5.879,3.923,9.396,4.779l27.885-27.884
		C57.553,26.741,55.892,23.541,53.63,20.862z"/>
	<path  fill="black" d="M36,12.664c-12.741,0-23.069,10.328-23.069,23.069c0,0.201,0.01,0.399,0.015,0.598
		l23.651-23.652C36.398,12.674,36.201,12.664,36,12.664z"/>
	<path  fill="black" d="M59.053,35.136L35.402,58.787c0.2,0.005,0.397,0.015,0.598,0.015
		c12.74,0,23.068-10.328,23.068-23.069C59.068,35.533,59.059,35.335,59.053,35.136z"/>
</g>
</svg>
