<?xml version="1.0" encoding="utf-8"?>
<!-- Generator: Adobe Illustrator 16.0.0, SVG Export Plug-In . SVG Version: 6.00 Build 0)  -->
<!DOCTYPE svg PUBLIC "-//W3C//DTD SVG 1.1//EN" "http://www.w3.org/Graphics/SVG/1.1/DTD/svg11.dtd">
<svg version="1.1" id="Layer_1" xmlns="http://www.w3.org/2000/svg" xmlns:xlink="http://www.w3.org/1999/xlink" x="0px" y="0px"
	 width="100%" height="100%" viewBox="0 0 72 72" enable-background="new 0 0 72 72" xml:space="preserve">
<g>
	<path fill='black' d="M35.958,1.326c4.795,0,9.311,0.893,13.551,2.678c4.238,1.784,7.932,4.253,11.086,7.403
		c3.146,3.149,5.615,6.831,7.402,11.042c1.781,4.21,2.676,8.713,2.676,13.508c0,4.798-0.895,9.314-2.676,13.554
		c-1.787,4.237-4.256,7.919-7.402,11.042c-3.154,3.123-6.848,5.59-11.086,7.401c-4.24,1.812-8.756,2.72-13.551,2.72
		c-4.796,0-9.299-0.908-13.511-2.72c-4.21-1.812-7.878-4.278-11-7.401c-3.123-3.123-5.592-6.805-7.403-11.041
		c-1.813-4.24-2.718-8.757-2.718-13.555c0-4.795,0.906-9.296,2.718-13.508c1.812-4.211,4.28-7.893,7.403-11.042
		c3.123-3.15,6.791-5.619,11-7.403C26.66,2.219,31.163,1.326,35.958,1.326z M6.179,35.957c0,4.127,0.781,8.004,2.342,11.63
		c1.561,3.623,3.694,6.774,6.399,9.448c2.705,2.678,5.869,4.813,9.494,6.402c3.625,1.588,7.472,2.381,11.545,2.381
		c1.002,0,2.006-0.025,3.01-0.082c1.004-0.053,1.98-0.192,2.928-0.418c-3.904-1.782-7.11-3.666-9.62-5.646
		c-2.51-1.979-4.505-3.932-5.98-5.855c-1.479-1.924-2.511-3.848-3.096-5.771c-0.586-1.924-0.907-3.749-0.962-5.479
		c-0.113-4.015,1.086-7.947,3.597-11.795l-7.612-2.51l20.911-9.033l9.955,17.984l-7.695-1.589c-1.225,2.12-1.617,3.751-1.17,4.894
		c0.445,1.146,1.393,1.94,2.844,2.385c1.449,0.445,3.248,0.627,5.395,0.543c2.146-0.082,4.324-0.275,6.525-0.586
		c2.203-0.307,4.252-0.683,6.148-1.127c1.896-0.448,3.373-0.809,4.434-1.088c0.113-0.78,0.195-1.547,0.252-2.299
		c0.057-0.755,0.084-1.549,0.084-2.386c0-4.128-0.795-8.002-2.383-11.628c-1.592-3.625-3.725-6.789-6.4-9.496
		c-2.678-2.702-5.84-4.835-9.494-6.398c-3.654-1.561-7.543-2.344-11.668-2.344c-4.128,0-7.99,0.783-11.585,2.344
		c-3.597,1.563-6.749,3.696-9.454,6.398c-2.706,2.707-4.838,5.871-6.399,9.496C6.959,27.958,6.179,31.83,6.179,35.957z"/>
</g>
</svg>
