<?xml version="1.0" encoding="utf-8"?>
<!-- Generator: Adobe Illustrator 16.0.0, SVG Export Plug-In . SVG Version: 6.00 Build 0)  -->
<!DOCTYPE svg PUBLIC "-//W3C//DTD SVG 1.1//EN" "http://www.w3.org/Graphics/SVG/1.1/DTD/svg11.dtd">
<svg version="1.1" id="Layer_1" xmlns="http://www.w3.org/2000/svg" xmlns:xlink="http://www.w3.org/1999/xlink" x="0px" y="0px"
	 width="100%" height="100%" viewBox="0 0 72 72" enable-background="new 0 0 72 72" xml:space="preserve">
<g>
	<path  fill="black" d="M36,3.182C17.875,3.182,3.182,17.875,3.182,36S17.875,68.818,36,68.818
		S68.818,54.125,68.818,36S54.125,3.182,36,3.182z M36,63.045C21.063,63.045,8.955,50.937,8.955,36S21.063,8.955,36,8.955
		S63.045,21.063,63.045,36S50.937,63.045,36,63.045z"/>
	<polygon  fill="black" points="31.265,16.716 23.436,24.545 41.979,29.186 46.646,47.754 54.475,39.925 
		50.874,20.316 	"/>
	<polygon  fill="black" points="18.268,29.713 10.414,37.566 28.969,42.221 33.623,60.776 41.477,52.922 
		37.839,33.326 	"/>
</g>
</svg>
