<?xml version="1.0" encoding="utf-8"?>
<!-- Generator: Adobe Illustrator 16.0.0, SVG Export Plug-In . SVG Version: 6.00 Build 0)  -->
<!DOCTYPE svg PUBLIC "-//W3C//DTD SVG 1.1//EN" "http://www.w3.org/Graphics/SVG/1.1/DTD/svg11.dtd">
<svg version="1.1" id="Layer_1" xmlns="http://www.w3.org/2000/svg" xmlns:xlink="http://www.w3.org/1999/xlink" x="0px" y="0px"
	 width="100%" height="100%" viewBox="0 0 72 72" enable-background="new 0 0 72 72" xml:space="preserve">
<g>
	<path fill='black' d="M36.042,1.452c4.733,0,9.202,0.905,13.408,2.718s7.868,4.28,10.985,7.403c3.119,3.124,5.599,6.778,7.438,10.959
		c1.838,4.184,2.759,8.646,2.759,13.385c0,4.795-0.921,9.298-2.759,13.511c-1.839,4.211-4.316,7.879-7.438,10.999
		c-3.117,3.123-6.779,5.595-10.985,7.403c-4.206,1.813-8.675,2.718-13.408,2.718c-4.791,0-9.276-0.905-13.453-2.718
		c-4.177-1.811-7.84-4.28-10.987-7.403c-3.148-3.12-5.64-6.788-7.478-10.999s-2.756-8.716-2.756-13.511
		c0-4.739,0.918-9.201,2.756-13.385c1.838-4.181,4.33-7.835,7.478-10.959c3.147-3.123,6.81-5.591,10.987-7.403
		C26.766,2.357,31.251,1.452,36.042,1.452z M44.729,64.688c3.021-0.948,5.828-2.361,8.43-4.236c2.597-1.872,4.85-4.055,6.749-6.544
		c1.897-2.488,3.382-5.255,4.442-8.304c1.063-3.049,1.596-6.275,1.596-9.689c0-4.139-0.782-7.995-2.344-11.575
		c-1.561-3.577-3.693-6.739-6.397-9.479c-2.707-2.738-5.871-4.879-9.495-6.418c-3.624-1.537-7.501-2.307-11.628-2.307
		c-4.181,0-8.086,0.77-11.71,2.307c-3.625,1.539-6.79,3.68-9.494,6.418c-2.706,2.74-4.825,5.916-6.358,9.522
		c-1.535,3.607-2.3,7.45-2.3,11.532c0,2.184,0.221,4.32,0.666,6.418c0.445,2.098,1.056,4.098,1.834,5.997
		c1.56-4.138,3.23-7.968,5.013-11.492c1.785-3.522,3.566-6.739,5.35-9.646l1.753,0.334l1.506,2.351
		c-1.842,3.468-3.54,7.298-5.1,11.492c-1.56,4.194-2.896,8.78-4.009,13.758c2.284,2.685,4.902,4.95,7.854,6.794
		c1.001-3.97,2.214-7.703,3.633-11.197c1.42-3.496,2.91-6.742,4.469-9.731c1.561-2.991,3.148-5.745,4.764-8.265
		c1.615-2.516,3.202-4.781,4.762-6.795l2.843,0.756l1.084,1.846c-2.951,4.139-5.806,9.242-8.563,15.311
		c-2.758,6.067-4.944,13.016-6.557,20.846c1.392,0.449,2.798,0.758,4.218,0.925c1.419,0.169,2.856,0.252,4.302,0.252h3.091
		c0.612-2.351,1.323-4.656,2.134-6.923c0.805-2.264,1.601-4.373,2.379-6.332l1.922,0.084l1.675,1.929
		c-0.503,1.622-0.962,3.271-1.382,4.95C45.441,61.253,45.064,62.956,44.729,64.688z M14.82,24.206l15.039-10.04l-3.676,17.736
		l-4.345-5.772L14.82,24.206z M42.725,25.127l-6.934-2.26l16.124-8.532L46.4,31.65L42.725,25.127z M39.133,50.139l13.784-11.963
		l-1.586,18.153l-4.763-5.438L39.133,50.139z"/>
</g>
</svg>
