<?xml version="1.0" encoding="UTF-8"?>
<svg width="31.628" height="30" version="1.1" viewBox="0 0 8.3682 7.9375" xmlns="http://www.w3.org/2000/svg" xmlns:cc="http://creativecommons.org/ns#" xmlns:dc="http://purl.org/dc/elements/1.1/" xmlns:rdf="http://www.w3.org/1999/02/22-rdf-syntax-ns#">
<metadata>
<rdf:RDF>
<cc:Work rdf:about="">
<dc:format>image/svg+xml</dc:format>
<dc:type rdf:resource="http://purl.org/dc/dcmitype/StillImage"/>
<dc:title/>
</cc:Work>
</rdf:RDF>
</metadata>
<g transform="translate(1169 459.65)">
<g transform="matrix(4.9612 0 0 4.9612 4033.9 803.65)" fill="#f9f9f9">
<g transform="matrix(.26458 0 0 .26458 -1048.8 -253.15)" fill="#f9f9f9">
<path d="m3.4375-2.0156 1.7812 2.4219v0.015625c0 0.007813-0.00781 0.019531-0.015625 0.03125h-3.5625c0-0.011719-0.007813-0.027344-0.015625-0.046875l1.7812-2.4219zm3.1719 0.23438-0.92188 1.4688h-0.015625c-0.03125-0.050781-0.070313-0.097656-0.10938-0.14062-0.03125-0.039063-0.0625-0.082031-0.09375-0.125-0.0625-0.09375-0.125-0.17969-0.1875-0.26562-0.0625-0.082031-0.13281-0.17188-0.20312-0.26562-0.074219-0.10156-0.15234-0.20703-0.23438-0.3125-0.074219-0.10156-0.15234-0.20703-0.23438-0.3125-0.0625-0.09375-0.13281-0.1875-0.20312-0.28125-0.0625-0.09375-0.13281-0.1875-0.20312-0.28125-0.03125-0.039063-0.058594-0.078125-0.078125-0.10938-0.023438-0.03125-0.046875-0.0625-0.078125-0.09375l-0.125-0.17188v-0.03125c-0.011719-0.03125 0-0.0625 0.03125-0.09375 0.050781-0.09375 0.11328-0.16406 0.1875-0.21875 0.070313-0.050781 0.16016-0.09375 0.26562-0.125l0.34375-0.125-0.35938-0.125c-0.085937-0.019531-0.16406-0.046875-0.23438-0.078125-0.074219-0.03125-0.14062-0.082031-0.20312-0.15625-0.10547-0.13281-0.15625-0.28516-0.15625-0.45312v-1.5156zm-3.5469-3.8125v1.5156c0 0.16797-0.054688 0.32031-0.15625 0.45312-0.0625 0.074219-0.13281 0.125-0.20312 0.15625-0.074219 0.03125-0.15234 0.058594-0.23438 0.078125-0.054688 0.023437-0.11719 0.042969-0.1875 0.0625-0.0625 0.023437-0.12109 0.042969-0.17188 0.0625 0.050781 0.023437 0.10156 0.042969 0.15625 0.0625 0.0625 0.023437 0.125 0.042969 0.1875 0.0625 0.09375 0.03125 0.17578 0.074219 0.25 0.125 0.082031 0.054687 0.14844 0.125 0.20312 0.21875 0.00781 0.03125 0.015625 0.0625 0.015625 0.09375v0.03125l-0.125 0.17188c-0.023437 0.03125-0.046875 0.0625-0.078125 0.09375-0.023438 0.03125-0.046875 0.070312-0.078125 0.10938-0.0625 0.09375-0.13281 0.1875-0.20312 0.28125-0.0625 0.09375-0.13281 0.1875-0.20312 0.28125-0.074219 0.10547-0.15234 0.21094-0.23438 0.3125-0.074219 0.10547-0.15234 0.21094-0.23438 0.3125-0.0625 0.09375-0.125 0.18359-0.1875 0.26562-0.0625 0.085938-0.13281 0.17188-0.20312 0.26562l-0.1875 0.26562h-0.015625l-0.9375-1.4688z" fill="#f9f9f9"/>
</g>
</g>
</g>
</svg>
