<svg version="1.1" id="Layer_1" xmlns="http://www.w3.org/2000/svg" xmlns:xlink="http://www.w3.org/1999/xlink" x="0px" y="0px" width="100%" height="100%" viewBox="0 0 72 72" enable-background="new 0 0 72 72" xml:space="preserve">
<path fill="black" d="
	m 31.160478,16.126445 -21.371489,4.21483 0,8.100878 3.301486,2.636654 0,9.583599 -3.301486,2.636655 0,8.359664 21.371489,4.21483 1.375491,-3.300593 6.928062,0 1.375491,3.300593 21.37149,-4.21483 0,-8.100878 -3.301487,-2.636654 0,-9.583599 3.301487,-2.636655 0,-8.359664 -1.835523,-0.362724 -19.535967,-3.852106 -1.375491,3.300593 -6.928062,0 z M 36,21.138849 l 13.678926,2.578727 -9.975157,7.213943 c 1.060276,1.022892 1.77483,2.339147 2.04752,3.770199 l 13.350715,-9.793491 2.838389,0.559997 0,21.063552 -2.579238,0.511209 -13.586925,-9.901561 c -0.239543,1.439029 -0.92562,2.770851 -1.964357,3.817817 L 49.65287,48.301881 36,50.861151 14.059606,46.531776 l 0,-8.398786 13.555489,0 C 27.390522,37.44307 27.2753,36.723948 27.272408,36 c 9.68e-4,-0.723654 0.114363,-1.442769 0.336952,-2.13299 l -13.549754,0 0,-8.398786 z m -1.425063,8.803902 c -3.42493,-5.5e-5 -6.2014,2.7119 -6.201343,6.057249 -5.7e-5,3.345349 2.776413,6.057304 6.201343,6.057249 3.424931,5.5e-5 6.2014,-2.7119 6.201343,-6.057249 5.7e-5,-3.345349 -2.776412,-6.057304 -6.201343,-6.057249 z
"></path>
</svg>