<?xml version="1.0" encoding="utf-8"?>
<!-- Generator: Adobe Illustrator 16.0.0, SVG Export Plug-In . SVG Version: 6.00 Build 0)  -->
<!DOCTYPE svg PUBLIC "-//W3C//DTD SVG 1.1//EN" "http://www.w3.org/Graphics/SVG/1.1/DTD/svg11.dtd">
<svg version="1.1" id="Layer_1" xmlns="http://www.w3.org/2000/svg" xmlns:xlink="http://www.w3.org/1999/xlink" x="0px" y="0px"
	 width="100%" height="100%" viewBox="0 0 72 72" enable-background="new 0 0 72 72" xml:space="preserve">
<g>
	<path fill='black' d="M38.351,30.32h-0.652v11.355h0.652l2.656-2.657h22.73C61.867,46.663,53.02,52.75,41.678,54.3v-7.097l-3.327-3.322h-0.652
		v10.76c-0.562,0.024-1.128,0.037-1.698,0.037c-0.571,0-1.134-0.013-1.696-0.037v-10.76h-0.656l-3.325,3.322V54.3
		c-11.344-1.55-20.19-7.637-22.06-15.282h22.728l2.657,2.657h0.656V30.32h-0.656l-2.661,2.662H8.263
		c1.87-7.644,10.716-13.733,22.06-15.277v7.087l3.325,3.325h0.656V17.359c0.562-0.021,1.125-0.038,1.696-0.038
		c0.57,0,1.137,0.017,1.698,0.038v10.757h0.652l3.327-3.325v-7.089c11.342,1.546,20.189,7.635,22.06,15.279H41.012L38.351,30.32z"/>
</g>
</svg>
