<?xml version="1.0" encoding="utf-8"?>
<!-- Generator: Adobe Illustrator 16.0.0, SVG Export Plug-In . SVG Version: 6.00 Build 0)  -->
<!DOCTYPE svg PUBLIC "-//W3C//DTD SVG 1.1//EN" "http://www.w3.org/Graphics/SVG/1.1/DTD/svg11.dtd">
<svg version="1.1" id="Layer_1" xmlns="http://www.w3.org/2000/svg" xmlns:xlink="http://www.w3.org/1999/xlink" x="0px" y="0px"
	 width="100%" height="100%" viewBox="0 0 72 72" enable-background="new 0 0 72 72" xml:space="preserve">
<g>
	<path fill='black' d="M44.355,52.138c6.859-2.842,20.047-20.836,0.591-22.526l1.892,6.855l0,0c0,0-6.417-7.904-17.203-10.494
		C40.421,23.384,46.838,15.48,46.838,15.48l-1.892,6.852C81.188,25.157,56.726,51.626,44.355,52.138z M27.053,42.389l-1.89-6.854
		v-0.003c0,0,6.415,7.903,17.198,10.494C31.577,48.613,25.163,56.52,25.163,56.52l1.89-6.854
		c-36.237-2.824-11.781-29.289,0.586-29.801C20.787,22.699,7.593,40.698,27.053,42.389z"/>
</g>
</svg>
